<svg width="479" height="165" viewBox="0 0 479 165" fill="none" xmlns="http://www.w3.org/2000/svg">
<path d="M87.9937 24.0838C87.9937 21.4578 87.9937 18.8317 87.9937 15.5493C81.4886 17.9823 75.3915 20.2627 69.0791 22.3706C69.2646 21.0721 69.6424 19.9391 70.0701 18.8213C71.5695 14.9031 73.086 10.9901 74.596 7.07512C83.3347 4.748 92.0733 2.42089 101.164 0C101.164 5.36243 101.164 10.1197 100.919 15.1394C96.5891 16.5835 93.5264 18.8989 91.0424 21.9812C90.3243 22.8723 89.026 23.3932 87.9937 24.0838Z" fill="#303030"/>
<path d="M104.541 142.21C104.541 144.234 104.541 146.258 104.541 149.129C111.227 146.52 117.251 144.169 123.481 142.006C123.479 143.086 123.355 144.002 123.05 144.866C121.556 149.096 120.014 153.312 118.489 157.533C109.387 159.907 100.285 162.281 90.7939 164.756C90.7939 160.098 90.7939 156.014 91.0373 151.669C95.746 149.572 99.3576 146.805 102.45 143.433C102.953 142.884 103.834 142.611 104.541 142.21Z" fill="#303030"/>
<path d="M52.7822 70.3039C52.7497 62.3725 52.6246 54.4402 52.7226 46.5101C52.7736 42.3868 55.5383 40.4122 60.5297 40.5161C64.1775 40.592 66.5426 43.0555 66.541 46.7869C66.5382 53.6112 66.5311 60.4355 66.2514 67.4994C61.5787 68.594 57.1804 69.449 52.7822 70.3039Z" fill="#303030"/>
<path d="M139.176 94.9624C139.208 102.895 139.314 110.827 139.24 118.759C139.207 122.312 136.147 124.334 131.434 124.237C127.934 124.165 125.423 121.779 125.42 118.482C125.413 111.657 125.427 104.832 125.704 97.7669C130.377 96.6723 134.776 95.8174 139.176 94.9624Z" fill="#303030"/>
<path d="M90.8794 111.906C90.8472 106.097 90.8009 100.287 90.7888 94.4768C90.7828 91.5736 93.1626 89.1951 96.3956 88.7993C99.7869 88.3842 103.594 90.3138 103.974 93.1187C104.485 96.8839 104.485 100.707 104.621 104.508C104.704 106.813 104.629 109.123 104.368 111.673C102.059 112.601 99.9927 113.255 97.9596 113.983C96.2822 114.583 94.9733 114.709 93.824 113.017C93.377 112.359 91.8917 112.26 90.8794 111.906Z" fill="#303030"/>
<path d="M101.078 51.819C101.11 58.1492 101.185 64.4796 101.156 70.8095C101.142 73.6792 97.9679 76.0103 94.3737 75.957C90.9243 75.9059 87.9337 73.5768 87.9126 70.7779C87.8662 64.6172 87.9058 58.4561 88.1757 52.0561C90.3154 51.2498 92.1553 50.5406 94.0777 50.1712C95.1346 49.9681 96.3707 50.2097 97.4529 50.4812C98.7032 50.7948 99.8732 51.362 101.078 51.819Z" fill="#303030"/>
<path d="M22.5733 64.1421C20.4945 68.5434 18.4156 72.9448 16.029 77.4602C14.1891 77.1799 12.6319 76.8491 11.1307 76.377C8.59891 75.581 6.1027 74.6954 3.59155 73.8475C4.39827 71.3931 4.98438 68.8587 6.06436 66.5035C7.61227 63.1279 9.52069 59.8832 11.6358 56.5723C15.522 59.0887 19.0477 61.6154 22.5733 64.1421Z" fill="#303030"/>
<path d="M169.801 100.587C171.793 96.0267 173.785 91.4667 176.161 86.8877C180.636 88.0253 184.727 89.1819 188.818 90.3386C186.829 94.9633 184.854 99.5928 182.841 104.209C182.308 105.434 181.657 106.618 180.688 107.838C176.812 105.432 173.306 103.009 169.801 100.587Z" fill="#303030"/>
<path d="M87.9522 24.3219C89.0259 23.3932 90.3242 22.8723 91.0423 21.9812C93.5263 18.8989 96.589 16.5835 100.876 15.3774C101.112 20.1419 101.146 24.9308 101.184 30.1562C101.173 30.9928 101.157 31.3929 100.941 31.8111C96.4913 34.2123 92.2424 36.5954 87.9936 38.9785C87.9659 34.1723 87.9383 29.3662 87.9522 24.3219Z" fill="#303030"/>
<path d="M22.6636 63.9743C19.0476 61.6155 15.522 59.0888 11.8179 56.4885C14.3133 52.4388 16.9796 48.4587 19.6686 44.4907C20.1002 43.8539 20.6331 43.2713 21.3871 42.7498C24.5161 46.0085 27.3773 49.1812 30.2384 52.3538C27.7436 56.1713 25.2488 59.9888 22.6636 63.9743Z" fill="#303030"/>
<path d="M118.697 157.516C120.014 153.312 121.556 149.096 123.05 144.866C123.355 144.002 123.478 143.086 123.685 141.988C127.58 139.7 131.474 137.616 135.659 135.686C135.902 140.502 135.854 145.166 135.806 149.829C130.173 152.386 124.539 154.942 118.697 157.516Z" fill="#303030"/>
<path d="M169.621 100.669C173.306 103.009 176.812 105.432 180.53 107.945C177.439 112.722 174.136 117.408 170.626 121.985C167.724 118.535 165.029 115.194 162.334 111.852C164.703 108.152 167.072 104.452 169.621 100.669Z" fill="#303030"/>
<path d="M87.9521 39.2166C92.2424 36.5954 96.4913 34.2123 100.95 32.051C101.179 35.7228 101.198 39.1728 101.217 42.6227C101.199 45.5297 101.182 48.4368 101.121 51.5814C99.873 51.362 98.7031 50.7949 97.4528 50.4812C96.3705 50.2098 95.1345 49.9682 94.0776 50.1713C92.1552 50.5407 90.3153 51.2498 88.2173 51.8181C87.966 47.6976 87.9383 43.5762 87.9521 39.2166Z" fill="#303030"/>
<path d="M66.4434 99.5811C66.4709 104.216 66.4983 108.85 66.275 113.727C64.4639 114.737 62.8957 115.494 61.3449 116.278C58.4852 117.723 55.6357 119.184 52.7819 120.638C52.7534 115.661 52.7249 110.684 52.9413 105.446C57.6053 103.317 62.0244 101.449 66.4434 99.5811Z" fill="#303030"/>
<path d="M52.7395 120.874C55.6356 119.184 58.4852 117.723 61.3449 116.277C62.8957 115.494 64.4638 114.737 66.2336 113.965C66.4431 115.554 66.4431 117.148 66.4431 118.873C68.8242 119.349 71.0436 119.793 73.2955 120.57C70.2877 124.258 67.2473 127.614 64.2069 130.97C60.8215 130.093 57.4095 129.284 54.0744 128.275C53.4532 128.087 52.8153 127.117 52.7489 126.462C52.5694 124.691 52.6935 122.896 52.7395 120.874Z" fill="#303030"/>
<path d="M3.39862 73.9438C6.10262 74.6956 8.59883 75.5812 11.1306 76.3772C12.6318 76.8493 14.189 77.1801 15.9709 77.6344C15.452 80.4334 14.69 83.1739 13.9127 85.911C12.9734 89.2184 8.70267 91.6124 5.2243 90.7919C1.07827 89.8139 -0.942253 86.1845 0.424709 82.134C1.33659 79.432 2.27773 76.7377 3.39862 73.9438Z" fill="#303030"/>
<path d="M129.52 34.3289C132.487 35.0523 135.477 35.7153 138.399 36.563C138.849 36.6935 139.197 37.6633 139.232 38.2617C139.337 40.0507 139.264 41.848 139.022 43.9005C137.346 44.9744 135.928 45.8191 134.467 46.5993C131.495 48.1861 128.5 49.7381 125.514 51.3045C125.514 49.5337 125.514 47.7629 125.514 45.9824C123.756 45.5295 122.196 45.1275 120.432 44.4515C120.638 43.534 120.936 42.804 121.473 42.2617C124.121 39.5901 126.832 36.9683 129.52 34.3289Z" fill="#303030"/>
<path d="M188.864 90.1423C184.727 89.1819 180.636 88.0252 176.35 86.7926C177.09 83.5939 177.799 80.3984 179.028 77.3698C180.16 74.5795 184.049 73.157 187.006 74.0333C191.001 75.2169 192.837 78.3879 191.637 82.3759C190.868 84.9325 189.829 87.4248 188.864 90.1423Z" fill="#303030"/>
<path d="M125.473 51.5425C128.5 49.7379 131.495 48.1859 134.467 46.5991C135.928 45.8189 137.346 44.9742 138.98 44.1365C139.204 48.7492 139.232 53.3843 139.018 58.2795C138.028 58.8993 137.299 59.2938 136.531 59.6127C132.865 61.1346 129.188 62.636 125.515 64.1448C125.487 60.0234 125.459 55.902 125.473 51.5425Z" fill="#303030"/>
<path d="M52.738 70.5423C57.1801 69.4493 61.5784 68.5943 66.2101 67.7378C66.4708 71.8578 66.4982 75.9793 66.2742 80.3651C61.6093 81.8101 57.1958 82.991 52.7822 84.1719C52.7528 79.708 52.7234 75.2442 52.738 70.5423Z" fill="#303030"/>
<path d="M139.22 94.7241C134.776 95.8171 130.377 96.6721 125.745 97.5286C125.487 93.4087 125.459 89.2873 125.693 84.9228C130.361 83.4847 134.768 82.2897 139.176 81.0947C139.205 85.5585 139.234 90.0223 139.22 94.7241Z" fill="#303030"/>
<path d="M104.582 141.972C103.834 142.611 102.953 142.885 102.45 143.433C99.3574 146.805 95.7459 149.572 91.0803 151.431C90.8516 147.162 90.823 142.87 91.0453 138.337C93.826 136.637 96.3596 135.182 98.8844 133.716C100.776 132.618 102.656 131.505 104.541 130.398C104.568 134.177 104.596 137.955 104.582 141.972Z" fill="#303030"/>
<path d="M90.8361 112.145C91.8919 112.261 93.3772 112.36 93.8241 113.018C94.9735 114.709 96.2824 114.583 97.9598 113.983C99.9929 113.255 102.059 112.601 104.326 111.911C104.57 115.001 104.598 118.096 104.383 121.451C103.048 122.216 101.914 122.663 100.868 123.236C97.5003 125.083 94.1651 126.977 90.808 128.615C90.7794 126.295 90.7602 124.212 90.741 122.13C90.7582 118.881 90.7754 115.632 90.8361 112.145Z" fill="#303030"/>
<path d="M74.3735 7.1001C73.0861 10.99 71.5696 14.903 70.0702 18.8212C69.6425 19.939 69.2647 21.072 68.8669 22.4013C65.9302 24.1253 62.9904 25.646 59.8364 26.9689C59.9957 22.089 60.3694 17.4068 60.743 12.7246C65.2123 10.8581 69.6816 8.99163 74.3735 7.1001Z" fill="#303030"/>
<path d="M90.4796 122.152C90.76 124.212 90.7792 126.294 90.7957 128.851C90.7768 131.07 90.7607 132.815 90.7446 134.559C85.5142 134.067 80.2838 133.575 74.8618 132.804C75.0174 131.925 75.3383 131.311 75.7163 130.726C77.6513 127.731 79.6011 124.743 81.5458 121.753C84.4367 121.893 87.3275 122.034 90.4796 122.152Z" fill="#303030"/>
<path d="M52.7388 84.4098C57.1958 82.9909 61.6093 81.81 66.233 80.603C66.4706 83.8423 66.498 87.1078 66.2778 90.6363C64.4462 91.4926 62.8788 92.1239 61.275 92.6705C58.4557 93.6314 55.6142 94.5405 52.7819 95.4713C52.7531 91.8635 52.7242 88.2557 52.7388 84.4098Z" fill="#303030"/>
<path d="M136.008 149.816C135.854 145.166 135.902 140.502 135.866 135.658C138.547 133.47 141.313 131.463 144.355 129.585C145.154 134.365 145.676 139.015 146.197 143.666C142.868 145.711 139.539 147.757 136.008 149.816Z" fill="#303030"/>
<path d="M139.219 80.8567C134.768 82.2897 130.361 83.4847 125.734 84.6847C125.487 81.5953 125.459 78.5008 125.702 75.168C127.224 74.6306 128.507 74.4099 129.72 74.0174C132.889 72.9923 136.026 71.892 139.176 70.8218C139.205 74.0874 139.234 77.3531 139.219 80.8567Z" fill="#303030"/>
<path d="M90.762 134.78C90.7608 132.814 90.7769 131.07 90.8051 129.089C94.165 126.977 97.5002 125.083 100.868 123.236C101.914 122.662 103.048 122.216 104.341 121.688C104.569 124.418 104.597 127.17 104.583 130.16C102.656 131.504 100.776 132.618 98.8845 133.716C96.3597 135.182 93.8261 136.636 91.0883 138.098C90.8466 137.068 90.813 136.035 90.762 134.78Z" fill="#303030"/>
<path d="M52.7389 95.7089C55.6142 94.5402 58.4558 93.6311 61.2751 92.6702C62.8789 92.1236 64.4462 91.4923 66.2366 90.874C66.4707 93.6011 66.4982 96.3533 66.4846 99.3432C62.0244 101.449 57.6053 103.317 52.9841 105.207C52.7532 102.136 52.7245 99.0412 52.7389 95.7089Z" fill="#303030"/>
<path d="M81.3075 121.716C79.6011 124.743 77.6513 127.731 75.7162 130.726C75.3383 131.311 75.0174 131.925 74.645 132.703C71.2266 132.36 67.8336 131.84 64.3237 131.145C67.2473 127.615 70.2877 124.259 73.4113 120.744C76.0193 120.95 78.5443 121.315 81.3075 121.716Z" fill="#303030"/>
<path d="M31.2632 32.2778C33.8401 30.0948 36.417 27.9117 39.3415 25.7808C40.3663 28.51 40.9754 31.2029 41.7467 33.8583C42.2038 35.4317 42.9171 36.9462 43.5151 38.4872C41.6994 40.3335 39.8836 42.1799 37.8045 43.9284C35.4485 39.9797 33.3559 36.1288 31.2632 32.2778Z" fill="#303030"/>
<path d="M101.475 42.6005C101.198 39.1727 101.179 35.7227 101.151 32.0329C101.157 31.3929 101.173 30.9927 101.202 30.3931C105.268 30.5572 109.322 30.9207 113.62 31.5098C111.731 35.356 109.597 38.9767 107.463 42.5975C105.553 42.5911 103.644 42.5848 101.475 42.6005Z" fill="#303030"/>
<path d="M53.8676 30.8151C52.0744 32.1291 50.2812 33.4432 48.1335 34.6971C47.2188 30.1156 46.6585 25.5942 46.0981 21.0728C48.3538 19.5447 50.6095 18.0167 53.0644 16.7102C53.2757 21.0793 53.2693 25.227 53.3245 29.374C53.3309 29.8562 53.6783 30.3348 53.8676 30.8151Z" fill="#303030"/>
<path d="M54.0531 30.7417C53.6783 30.3348 53.331 29.8562 53.3245 29.374C53.2693 25.227 53.2757 21.0793 53.2642 16.6982C55.6183 15.2367 57.9721 14.0087 60.5344 12.7527C60.3693 17.4067 59.9956 22.0889 59.6284 26.9984C57.836 28.3732 56.0373 29.5208 54.0531 30.7417Z" fill="#303030"/>
<path d="M146.394 143.655C145.676 139.015 145.154 134.365 144.536 129.515C146.053 127.992 147.665 126.668 149.545 125.46C150.925 129.942 152.038 134.308 153.151 138.674C150.964 140.331 148.777 141.987 146.394 143.655Z" fill="#303030"/>
<path d="M162.152 111.925C165.029 115.194 167.724 118.535 170.442 122.059C168.867 124.067 167.268 125.892 165.306 127.705C162.521 124.136 160.1 120.578 157.679 117.021C159.11 115.346 160.54 113.672 162.152 111.925Z" fill="#303030"/>
<path d="M30.4189 52.2835C27.3772 49.181 24.5161 46.0084 21.5715 42.6757C23.0874 40.6894 24.6867 38.8631 26.6488 37.0457C29.4337 40.6136 31.8559 44.1727 34.2781 47.7318C33.0519 49.2256 31.8257 50.7194 30.4189 52.2835Z" fill="#303030"/>
<path d="M157.503 117.098C160.1 120.578 162.521 124.136 165.125 127.774C163.493 129.703 161.676 131.55 159.598 133.292C157.798 129.804 156.293 126.408 154.689 123.05C154.427 122.503 153.722 122.125 153.221 121.668C154.59 120.17 155.959 118.673 157.503 117.098Z" fill="#303030"/>
<path d="M107.591 42.781C109.597 38.9767 111.731 35.3559 113.87 31.5471C116.219 31.6762 118.565 31.9932 121.14 32.5346C120.943 33.5973 120.598 34.4788 120.074 35.2662C118.233 38.0329 116.33 40.7673 114.451 43.514C112.207 43.3308 109.964 43.1477 107.591 42.781Z" fill="#303030"/>
<path d="M153.139 121.826C153.721 122.125 154.427 122.504 154.689 123.051C156.293 126.408 157.798 129.804 159.419 133.362C157.505 135.203 155.507 136.869 153.33 138.605C152.038 134.308 150.925 129.942 149.724 125.391C150.776 124.131 151.917 123.057 153.139 121.826Z" fill="#303030"/>
<path d="M45.8812 21.0581C46.6586 25.5943 47.219 30.1157 47.9535 34.7661C46.7093 36.0469 45.2908 37.1987 43.6938 38.4188C42.9172 36.9461 42.2039 35.4316 41.7469 33.8582C40.9755 31.2028 40.3665 28.5099 39.5188 25.715C41.4536 24.0793 43.5589 22.5613 45.8812 21.0581Z" fill="#303030"/>
<path d="M139.218 70.5876C136.026 71.892 132.889 72.9922 129.72 74.0173C128.507 74.4098 127.224 74.6305 125.743 74.9301C125.487 73.2023 125.459 71.4739 125.694 69.5123C127.291 68.8631 128.644 68.4896 129.955 68.0228C133.039 66.9248 136.103 65.7822 139.175 64.6577C139.204 66.5563 139.232 68.4549 139.218 70.5876Z" fill="#303030"/>
<path d="M114.679 43.5555C116.33 40.7675 118.233 38.0331 120.074 35.2663C120.598 34.4789 120.943 33.5974 121.374 32.5725C124.018 32.9172 126.658 33.4484 129.409 34.1542C126.832 36.9682 124.121 39.5901 121.474 42.2616C120.936 42.804 120.638 43.5339 120.227 44.3595C118.452 44.2267 116.679 43.9118 114.679 43.5555Z" fill="#303030"/>
<path d="M139.217 64.4237C136.103 65.7823 133.039 66.9249 129.956 68.0228C128.644 68.4897 127.291 68.8631 125.736 69.2796C125.488 67.7222 125.46 66.1643 125.474 64.3755C129.188 62.636 132.865 61.1345 136.531 59.6126C137.299 59.2937 138.028 58.8993 138.975 58.5176C139.203 60.3935 139.231 62.2916 139.217 64.4237Z" fill="#303030"/>
<path d="M34.4567 47.6635C31.8557 44.1729 29.4335 40.6137 26.8298 36.9761C28.0684 35.4018 29.4883 33.906 31.0856 32.344C33.3556 36.1287 35.4483 39.9797 37.6225 44.0002C36.6812 45.3116 35.6583 46.4534 34.4567 47.6635Z" fill="#303030"/>
<path d="M410.786 55.0491C410.776 54.7616 410.767 54.6765 410.758 54.5914C410.501 54.7406 410.141 54.8314 410.001 55.0476C406.228 60.8987 402.472 66.7593 398.727 72.6264C397.356 74.7742 392.504 74.7082 391.097 72.5167C387.208 66.4647 383.311 60.4179 379.188 54.012C379.188 62.3502 379.188 70.3147 379.188 78.4807C375.691 78.4807 372.376 78.4807 368.862 78.4807C368.862 64.0117 368.862 49.4371 368.862 34.5223C371.567 34.5223 374.361 34.4006 377.128 34.6049C377.851 34.6583 378.672 35.6212 379.139 36.3428C384.441 44.5367 389.683 52.7649 395.145 61.3016C398.151 56.538 401.051 51.9596 403.933 47.3719C406.417 43.4197 408.855 39.442 411.389 35.5188C411.694 35.0458 412.464 34.5798 413.037 34.5597C415.837 34.4613 418.644 34.5151 421.586 34.5151C421.586 49.2852 421.586 63.8595 421.586 78.5586C418.254 78.5586 415.004 78.5586 411.549 78.5586C411.297 70.8302 411.042 63.0409 410.786 55.0491Z" fill="#303030"/>
<path d="M275.125 62.3481C274.596 61.6365 274.074 60.7761 273.538 60.7683C267.081 60.6751 260.622 60.708 253.898 60.708C253.898 66.6667 253.898 72.5186 253.898 78.5251C250.142 78.5251 246.646 78.5251 243 78.5251C243 63.9237 243 49.35 243 34.6448C246.562 34.6448 250.057 34.6448 253.721 34.6448C253.721 40.3683 253.721 45.9861 253.721 51.7892C260.843 51.7892 267.801 51.7892 275.027 51.7892C275.027 46.1812 275.027 40.4999 275.027 34.6683C278.784 34.6683 282.28 34.6683 285.922 34.6683C285.922 49.2802 285.922 63.8539 285.922 78.5555C282.416 78.5555 278.984 78.5555 275.126 78.5555C275.126 73.2834 275.126 67.9395 275.125 62.3481Z" fill="#303030"/>
<path d="M317.003 69.4502C315.467 72.0651 314.23 74.6973 312.84 77.2564C312.513 77.8581 311.688 78.5933 311.063 78.6183C307.709 78.7526 304.346 78.6817 300.588 78.6817C301.53 76.5028 302.295 74.5795 303.184 72.708C307.051 64.5646 310.975 56.4454 314.834 48.2985C316.634 44.4964 318.345 40.6565 320.072 36.8235C320.777 35.2575 321.644 34.0778 323.803 34.483C324.766 34.6638 325.833 34.6686 326.797 34.487C331.241 33.6489 333.509 35.334 335.283 39.2995C340.983 52.0454 347.17 64.6 353.148 77.2369C353.318 77.5957 353.261 78.0491 353.337 78.6816C349.679 78.6816 346.144 78.738 342.615 78.6262C342.024 78.6075 341.204 77.9735 340.928 77.4282C339.9 75.403 338.83 73.3528 338.219 71.2009C337.781 69.6584 336.981 69.411 335.553 69.4208C329.451 69.4629 323.348 69.44 317.003 69.4502ZM320.278 61.6535C324.698 61.6535 329.119 61.6535 333.978 61.6535C331.589 56.1775 329.334 51.0094 326.996 45.65C325.73 48.5164 324.591 51.0391 323.5 53.5797C322.408 56.1225 321.363 58.6832 320.278 61.6535Z" fill="#303030"/>
<path d="M453.456 34C461.911 34 470.092 34 478.446 34C478.446 37.0748 478.446 40.0135 478.446 43.2014C473.486 43.2014 468.53 43.2014 463.329 43.2014C463.329 55.1077 463.329 66.7701 463.329 78.5565C459.651 78.5565 456.221 78.5565 452.537 78.5565C452.537 66.9623 452.537 55.2998 452.537 43.3909C447.343 43.3909 442.386 43.3909 437.239 43.3909C437.239 40.2125 437.239 37.2725 437.239 34C442.515 34 447.849 34 453.456 34Z" fill="#303030"/>
<path d="M330.782 113.769C327.162 111.529 325.429 106.796 326.61 102.686C327.66 99.0319 331.79 95.64 335.702 95.698C338.415 95.7382 341.38 95.8571 343.769 96.888C348.697 99.0151 349.538 103.073 348.914 108.285C348.48 111.903 344.203 115.419 340.165 115.62C336.983 115.779 333.657 116.135 330.782 113.769ZM342.481 112.572C345.283 110.897 346.952 108.167 346.611 105.398C345.907 99.6786 341.795 97.1728 336.223 97.7163C331.813 98.1465 328.537 102.853 329.058 106.64C329.822 112.19 336.626 115.438 342.481 112.572Z" fill="#303030"/>
<path d="M266.374 113.995C266.374 107.767 266.374 101.786 266.374 95.8046C266.587 95.6102 266.8 95.4157 267.014 95.2212C268.18 96.0591 269.557 96.7314 270.474 97.7638C274.19 101.945 277.763 106.239 281.4 110.483C281.539 110.644 281.794 110.718 282.237 110.971C282.237 106.318 282.27 101.898 282.217 97.479C282.201 96.1655 282.328 95.216 284.269 95.7821C284.269 102.267 284.269 108.823 284.269 116.02C283.053 115.384 281.846 115.081 281.178 114.346C278.339 111.225 275.675 107.963 272.915 104.778C271.635 103.3 270.281 101.878 268.682 100.126C268.682 105.421 268.682 110.328 268.682 115.319C267.321 115.801 266.278 116.098 266.374 113.995Z" fill="#303030"/>
<path d="M398.721 106.418C396.284 106.418 394.114 106.418 391.795 106.418C391.795 108.829 391.795 111.086 391.795 113.608C395.531 113.608 399.236 113.655 402.939 113.586C404.471 113.557 405.191 113.915 404.555 115.551C399.613 115.551 394.651 115.551 389.572 115.551C389.572 108.968 389.572 102.495 389.572 95.8267C394.275 95.8267 399.048 95.8267 404.021 95.8267C404.42 96.8994 404.54 97.7394 402.642 97.7047C399.1 97.6399 395.554 97.6861 391.827 97.6861C391.827 99.865 391.827 101.951 391.827 104.274C395.444 104.274 399.131 104.274 402.874 104.274C403.353 105.771 403.25 106.6 401.444 106.43C400.633 106.354 399.807 106.418 398.721 106.418Z" fill="#303030"/>
<path d="M454.086 106.418C452.38 106.218 451.665 106.606 451.78 108.169C451.925 110.126 451.916 112.108 451.758 114.063C451.705 114.714 450.985 115.317 450.571 115.942C450.309 115.824 450.047 115.706 449.785 115.589C449.785 109.04 449.785 102.492 449.785 95.7915C451.09 95.444 451.92 95.492 451.841 97.1988C451.735 99.4887 451.815 101.786 451.815 104.221C456.39 104.221 460.799 104.221 465.491 104.221C465.491 101.824 465.402 99.4518 465.554 97.0932C465.592 96.5079 466.412 95.967 466.872 95.4058C467.102 95.5434 467.332 95.6811 467.562 95.8188C467.562 102.297 467.562 108.775 467.562 115.416C466.088 115.998 465.391 115.706 465.465 113.958C465.567 111.571 465.491 109.177 465.491 106.418C461.733 106.418 458.042 106.418 454.086 106.418Z" fill="#303030"/>
<path d="M431.621 98.4959C424.97 96.7464 420.893 98.7495 419.543 104.408C418.51 108.738 421.701 113.216 426.74 113.512C428.727 113.629 430.772 112.631 432.813 112.248C433.787 112.066 434.814 112.137 435.841 112.407C432.059 116.657 423.982 116.699 419.798 113.126C415.725 109.647 415.607 102.198 419.693 98.3343C423.447 94.7838 432.506 94.2676 436.032 98.6822C435.561 99.2021 435.06 99.7545 434.537 100.332C433.538 99.7192 432.658 99.1794 431.621 98.4959Z" fill="#303030"/>
<path d="M300.978 95.6586C305.703 95.6372 310.165 95.6372 314.753 95.6372C315.417 97.1326 315.092 97.7592 313.239 97.7117C309.784 97.623 306.324 97.6862 302.672 97.6862C302.672 100.188 302.672 102.619 302.672 105.289C306.262 105.289 309.951 105.289 313.718 105.289C314.168 106.768 314.109 107.525 312.293 107.471C309.123 107.376 305.947 107.444 302.477 107.444C302.477 109.792 302.573 111.994 302.414 114.179C302.37 114.78 301.565 115.332 300.716 116.403C300.716 108.886 300.716 102.283 300.978 95.6586Z" fill="#303030"/>
<path d="M365.398 95.6322C368.851 95.6323 372.034 95.5654 375.209 95.6868C375.875 95.7123 376.511 96.4309 377.16 96.83C377.032 97.0925 376.903 97.3549 376.774 97.6174C374.359 97.6174 371.943 97.6174 369.3 97.6174C369.3 103.668 369.3 109.514 369.3 115.328C367.078 115.6 367.04 115.6 367.033 113.844C367.014 108.565 367.026 103.285 367.026 97.7773C364.502 97.7773 362.093 97.7773 359.613 97.7773C359.164 96.3048 359.224 95.4857 361.039 95.6136C362.394 95.7092 363.763 95.6323 365.398 95.6322Z" fill="#303030"/>
<path d="M249.963 103.338C249.963 107.096 250.024 110.599 249.905 114.097C249.884 114.72 249.114 115.322 248.689 115.933C248.385 115.812 248.082 115.69 247.778 115.569C247.778 109.274 247.747 102.978 247.843 96.6844C247.85 96.2315 248.782 95.791 249.284 95.3447C249.51 95.4713 249.736 95.5978 249.963 95.7244C249.963 98.1768 249.963 100.629 249.963 103.338Z" fill="#303030"/>
</svg>
